<?xml version="1.0" encoding="UTF-8"?>

<svg version="1.2" baseProfile="tiny" width="76.2mm" height="82.55mm" viewBox="0 0 7620 8255" preserveAspectRatio="xMidYMid" fill-rule="evenodd" clip-path="url(#presentation_clip_path)" stroke-width="28.222" stroke-linejoin="round" xmlns="http://www.w3.org/2000/svg" xmlns:ooo="http://xml.openoffice.org/svg/export" xmlns:xlink="http://www.w3.org/1999/xlink" xml:space="preserve">
 <defs class="ClipPathGroup">
  <clipPath id="presentation_clip_path" clipPathUnits="userSpaceOnUse">
   <rect x="0" y="0" width="7620" height="8255"/>
  </clipPath>
 </defs>
 <defs class="TextShapeIndex">
  <g ooo:slide="id1" ooo:id-list="id3 id4 id5 id6 id7 id8 id9 id10 id11 id12 id13 id14 id15 id16 id17 id18 id19 id20 id21 id22 id23 id24 id25 id26 id27 id28 id29 id30 id31 id32 id33 id34 id35 id36 id37 id38 id39 id40 id41 id42 id43 id44 id45 id46"/>
 </defs>
 <defs class="EmbeddedBulletChars">
  <g id="bullet-char-template(57356)" transform="scale(0.00048828125,-0.00048828125)">
   <path d="M 580,1141 L 1163,571 580,0 -4,571 580,1141 Z"/>
  </g>
  <g id="bullet-char-template(57354)" transform="scale(0.00048828125,-0.00048828125)">
   <path d="M 8,1128 L 1137,1128 1137,0 8,0 8,1128 Z"/>
  </g>
  <g id="bullet-char-template(10146)" transform="scale(0.00048828125,-0.00048828125)">
   <path d="M 174,0 L 602,739 174,1481 1456,739 174,0 Z M 1358,739 L 309,1346 659,739 1358,739 Z"/>
  </g>
  <g id="bullet-char-template(10132)" transform="scale(0.00048828125,-0.00048828125)">
   <path d="M 2015,739 L 1276,0 717,0 1260,543 174,543 174,936 1260,936 717,1481 1274,1481 2015,739 Z"/>
  </g>
  <g id="bullet-char-template(10007)" transform="scale(0.00048828125,-0.00048828125)">
   <path d="M 0,-2 C -7,14 -16,27 -25,37 L 356,567 C 262,823 215,952 215,954 215,979 228,992 255,992 264,992 276,990 289,987 310,991 331,999 354,1012 L 381,999 492,748 772,1049 836,1024 860,1049 C 881,1039 901,1025 922,1006 886,937 835,863 770,784 769,783 710,716 594,584 L 774,223 C 774,196 753,168 711,139 L 727,119 C 717,90 699,76 672,76 641,76 570,178 457,381 L 164,-76 C 142,-110 111,-127 72,-127 30,-127 9,-110 8,-76 1,-67 -2,-52 -2,-32 -2,-23 -1,-13 0,-2 Z"/>
  </g>
  <g id="bullet-char-template(10004)" transform="scale(0.00048828125,-0.00048828125)">
   <path d="M 285,-33 C 182,-33 111,30 74,156 52,228 41,333 41,471 41,549 55,616 82,672 116,743 169,778 240,778 293,778 328,747 346,684 L 369,508 C 377,444 397,411 428,410 L 1163,1116 C 1174,1127 1196,1133 1229,1133 1271,1133 1292,1118 1292,1087 L 1292,965 C 1292,929 1282,901 1262,881 L 442,47 C 390,-6 338,-33 285,-33 Z"/>
  </g>
  <g id="bullet-char-template(9679)" transform="scale(0.00048828125,-0.00048828125)">
   <path d="M 813,0 C 632,0 489,54 383,161 276,268 223,411 223,592 223,773 276,916 383,1023 489,1130 632,1184 813,1184 992,1184 1136,1130 1245,1023 1353,916 1407,772 1407,592 1407,412 1353,268 1245,161 1136,54 992,0 813,0 Z"/>
  </g>
  <g id="bullet-char-template(8226)" transform="scale(0.00048828125,-0.00048828125)">
   <path d="M 346,457 C 273,457 209,483 155,535 101,586 74,649 74,723 74,796 101,859 155,911 209,963 273,989 346,989 419,989 480,963 531,910 582,859 608,796 608,723 608,648 583,586 532,535 482,483 420,457 346,457 Z"/>
  </g>
  <g id="bullet-char-template(8211)" transform="scale(0.00048828125,-0.00048828125)">
   <path d="M -4,459 L 1135,459 1135,606 -4,606 -4,459 Z"/>
  </g>
 </defs>
 <defs class="TextEmbeddedBitmaps"/>
 <g>
  <g id="id2" class="Master_Slide">
   <g id="bg-id2" class="Background"/>
   <g id="bo-id2" class="BackgroundObjects"/>
  </g>
 </g>
 <g class="SlideGroup">
  <g>
   <g id="id1" class="Slide" clip-path="url(#presentation_clip_path)">
    <g class="Page">
     <g class="com.sun.star.drawing.LineShape">
      <g id="id3">
       <path fill="none" stroke="rgb(0,0,0)" stroke-width="51" stroke-linejoin="round" d="M 1000,997 L 1000,7223"/>
       <path fill="rgb(0,0,0)" stroke="none" d="M 1000,492 L 824,1020 1176,1020 1000,492 Z"/>
      </g>
     </g>
     <g class="com.sun.star.drawing.LineShape">
      <g id="id4">
       <path fill="none" stroke="rgb(0,0,0)" stroke-width="51" stroke-linejoin="round" d="M 6340,7223 L 1000,7223"/>
       <path fill="rgb(0,0,0)" stroke="none" d="M 6845,7223 L 6317,7047 6317,7399 6845,7223 Z"/>
      </g>
     </g>
     <g class="com.sun.star.drawing.LineShape">
      <g id="id5">
       <path fill="none" stroke="rgb(0,0,0)" stroke-width="51" stroke-linejoin="round" d="M 4011,7223 L 4011,2795"/>
      </g>
     </g>
     <g class="com.sun.star.drawing.LineShape">
      <g id="id6">
       <path fill="none" stroke="rgb(0,0,0)" stroke-width="51" stroke-linejoin="round" d="M 1000,7223 L 1942,864"/>
       <path fill="rgb(0,0,0)" stroke="none" d="M 2016,365 L 1765,862 2113,913 2016,365 Z"/>
      </g>
     </g>
     <g class="com.sun.star.drawing.LineShape">
      <g id="id7">
       <path fill="none" stroke="rgb(0,0,0)" stroke-width="51" stroke-linejoin="round" d="M 1000,1508 L 6334,7223"/>
      </g>
     </g>
     <g class="com.sun.star.drawing.OpenBezierShape">
      <g id="id8">
       <path fill="none" stroke="rgb(0,0,0)" d="M 6334,3934 C 6334,5152 5514,5230 5077,5381"/>
       <path fill="rgb(0,0,0)" stroke="none" d="M 4810,5458 L 5126,5470 5070,5278 4810,5458 Z"/>
      </g>
     </g>
     <g class="com.sun.star.drawing.CustomShape">
      <g id="id9">
       <path fill="none" stroke="rgb(128,0,0)" stroke-width="102" stroke-linejoin="round" d="M 2143,2524 C 2287,2524 2397,2634 2397,2778 2397,2922 2287,3032 2143,3032 1999,3032 1889,2922 1889,2778 1889,2634 1999,2524 2143,2524 Z"/>
      </g>
     </g>
     <g class="com.sun.star.drawing.LineShape">
      <g id="id10">
       <path fill="none" stroke="rgb(0,0,0)" stroke-width="102" stroke-linejoin="round" d="M 2143,2778 L 1942,2778"/>
       <path fill="none" stroke="rgb(0,0,0)" stroke-width="102" stroke-linejoin="round" d="M 1813,2778 L 1612,2778"/>
       <path fill="none" stroke="rgb(0,0,0)" stroke-width="102" stroke-linejoin="round" d="M 1482,2778 L 1281,2778"/>
       <path fill="none" stroke="rgb(0,0,0)" stroke-width="102" stroke-linejoin="round" d="M 1152,2778 L 1000,2778"/>
      </g>
     </g>
     <g class="com.sun.star.drawing.LineShape">
      <g id="id11">
       <path fill="none" stroke="rgb(0,0,0)" stroke-width="51" stroke-linejoin="round" d="M 1000,2778 L 4011,2795"/>
      </g>
     </g>
     <g class="com.sun.star.drawing.OpenBezierShape">
      <g id="id12">
       <path fill="none" stroke="rgb(0,0,0)" d="M 3159,1267 C 2651,1394 2530,1371 2299,1385"/>
       <path fill="rgb(0,0,0)" stroke="none" d="M 2016,1394 L 2319,1484 2312,1284 2016,1394 Z"/>
      </g>
     </g>
     <g class="com.sun.star.drawing.OpenBezierShape">
      <g id="id13">
       <path fill="none" stroke="rgb(0,0,0)" stroke-width="51" stroke-linejoin="round" d="M 4909,7247 C 4909,6598 5346,6209 5346,6209"/>
      </g>
     </g>
     <g class="com.sun.star.drawing.OpenBezierShape">
      <g id="id14">
       <path fill="none" stroke="rgb(0,0,0)" d="M 6207,6347 C 5699,6855 5498,6791 5269,6832"/>
       <path fill="rgb(0,0,0)" stroke="none" d="M 5259,6733 L 5071,6843 5066,6848 5064,6854 5067,6861 5073,6864 5282,6929 5284,6930 5286,6930 5290,6929 5294,6926 5296,6922 5296,6918 5276,6741 5275,6737 5272,6733 5267,6732 5263,6731 5261,6731 5259,6733 Z"/>
      </g>
     </g>
     <g class="Group">
      <g class="com.sun.star.drawing.PolyPolygonShape">
       <g id="id15">
        <path fill="rgb(255,255,255)" stroke="none" d="M 481,1570 L 111,1570 111,1134 852,1134 852,1570 481,1570 Z"/>
       </g>
      </g>
      <g class="com.sun.star.drawing.ClosedBezierShape">
       <g id="id16">
        <path fill="rgb(0,0,0)" stroke="none" d="M 397,1194 C 397,1158 369,1127 330,1127 300,1127 286,1135 269,1148 241,1168 215,1215 205,1253 L 126,1566 C 126,1568 128,1570 132,1570 136,1570 138,1570 139,1569 L 173,1432 C 182,1461 205,1479 240,1479 276,1479 314,1463 335,1442 359,1418 376,1387 376,1351 376,1314 358,1289 339,1277 367,1261 397,1231 397,1194 Z M 307,1277 C 300,1279 296,1279 283,1279 276,1279 266,1281 261,1278 262,1272 280,1274 286,1274 296,1274 300,1274 307,1277 Z M 369,1183 C 369,1218 349,1253 324,1268 310,1264 300,1263 286,1263 275,1263 248,1263 248,1278 247,1292 273,1291 282,1291 300,1291 307,1291 323,1284 341,1302 344,1317 344,1340 345,1369 334,1405 320,1425 300,1452 266,1470 238,1470 201,1470 182,1440 182,1405 182,1401 182,1393 185,1384 L 216,1258 C 227,1217 264,1138 323,1138 351,1138 369,1154 369,1183 Z"/>
       </g>
      </g>
      <g class="com.sun.star.drawing.ClosedBezierShape">
       <g id="id17">
        <path fill="rgb(0,0,0)" stroke="none" d="M 596,1278 L 638,1278 C 647,1278 653,1278 653,1267 653,1263 647,1263 639,1263 L 598,1263 610,1205 C 611,1196 618,1161 621,1155 625,1145 633,1138 645,1138 646,1138 659,1138 669,1147 646,1149 642,1166 642,1173 642,1184 650,1190 660,1190 673,1190 687,1180 687,1161 687,1138 664,1127 645,1127 628,1127 596,1135 582,1184 579,1196 577,1200 565,1263 L 531,1263 C 521,1263 516,1263 516,1271 516,1278 520,1278 530,1278 L 562,1278 526,1472 C 516,1520 507,1565 482,1565 481,1565 468,1565 458,1556 481,1555 486,1537 486,1530 486,1519 477,1512 467,1512 454,1512 440,1523 440,1542 440,1563 463,1576 482,1576 509,1576 530,1547 538,1528 554,1496 565,1438 566,1433 L 596,1278 Z"/>
       </g>
      </g>
      <g class="com.sun.star.drawing.ClosedBezierShape">
       <g id="id18">
        <path fill="rgb(0,0,0)" stroke="none" d="M 831,1486 L 818,1486 C 818,1495 814,1514 810,1519 807,1520 781,1520 775,1520 L 712,1520 C 748,1488 760,1478 781,1463 807,1442 831,1421 831,1387 831,1345 793,1320 750,1320 706,1320 677,1351 677,1382 677,1400 692,1401 695,1401 704,1401 713,1396 713,1383 713,1377 712,1365 694,1365 704,1340 727,1333 744,1333 779,1333 797,1359 797,1387 797,1418 775,1442 764,1454 L 680,1537 C 677,1540 677,1540 677,1549 L 820,1549 831,1486 Z"/>
       </g>
      </g>
     </g>
     <g class="Group">
      <g class="com.sun.star.drawing.PolyPolygonShape">
       <g id="id19">
        <path fill="rgb(255,255,255)" stroke="none" d="M 635,2831 L 365,2831 365,2394 905,2394 905,2831 635,2831 Z"/>
       </g>
      </g>
      <g class="com.sun.star.drawing.ClosedBezierShape">
       <g id="id20">
        <path fill="rgb(0,0,0)" stroke="none" d="M 650,2454 C 650,2418 622,2387 583,2387 554,2387 540,2395 523,2408 495,2427 469,2475 459,2513 L 380,2827 C 380,2828 382,2831 386,2831 390,2831 392,2831 393,2830 L 427,2692 C 436,2722 459,2740 494,2740 530,2740 568,2723 589,2702 613,2678 629,2647 629,2611 629,2575 611,2549 593,2537 621,2521 650,2490 650,2454 Z M 561,2537 C 554,2540 550,2540 537,2540 530,2540 520,2541 515,2538 516,2533 534,2534 540,2534 550,2534 554,2534 561,2537 Z M 622,2443 C 622,2478 603,2513 578,2528 564,2524 554,2523 540,2523 529,2523 502,2523 502,2538 501,2552 527,2551 536,2551 554,2551 561,2551 576,2544 594,2562 597,2577 597,2600 599,2629 587,2666 573,2685 554,2712 520,2730 492,2730 455,2730 436,2701 436,2666 436,2661 436,2653 439,2645 L 470,2519 C 481,2476 517,2398 576,2398 604,2398 622,2413 622,2443 Z"/>
       </g>
      </g>
      <g class="com.sun.star.drawing.ClosedBezierShape">
       <g id="id21">
        <path fill="rgb(0,0,0)" stroke="none" d="M 799,2520 C 736,2534 688,2598 688,2659 688,2706 720,2741 767,2741 824,2741 866,2664 866,2596 866,2551 846,2526 829,2503 811,2482 782,2444 782,2423 782,2412 792,2399 808,2399 824,2399 834,2406 843,2413 855,2419 864,2426 871,2426 884,2426 891,2413 891,2406 891,2395 883,2394 866,2390 839,2384 832,2384 825,2384 786,2384 768,2405 768,2434 768,2461 783,2489 799,2520 Z M 804,2530 C 817,2554 831,2580 831,2615 831,2647 813,2730 767,2730 739,2730 719,2710 719,2673 719,2640 737,2548 804,2530 Z"/>
       </g>
      </g>
     </g>
     <g class="Group">
      <g class="com.sun.star.drawing.PolyPolygonShape">
       <g id="id22">
        <path fill="rgb(255,255,255)" stroke="none" d="M 4210,1238 L 3159,1238 3159,802 5260,802 5260,1238 4210,1238 Z"/>
       </g>
      </g>
      <g class="com.sun.star.drawing.ClosedBezierShape">
       <g id="id23">
        <path fill="rgb(0,0,0)" stroke="none" d="M 3445,862 C 3445,826 3417,795 3377,795 3348,795 3334,803 3317,816 3289,836 3263,883 3253,921 L 3174,1234 C 3174,1236 3176,1238 3180,1238 3184,1238 3186,1238 3187,1237 L 3221,1100 C 3230,1129 3253,1147 3288,1147 3324,1147 3362,1131 3383,1110 3407,1086 3424,1055 3424,1019 3424,982 3405,957 3387,945 3415,929 3445,899 3445,862 Z M 3355,945 C 3348,947 3344,947 3331,947 3324,947 3314,949 3309,946 3310,940 3328,942 3334,942 3344,942 3348,942 3355,945 Z M 3417,851 C 3417,886 3397,921 3372,936 3358,932 3348,931 3334,931 3323,931 3296,931 3296,946 3295,960 3321,959 3330,959 3348,959 3355,959 3370,952 3389,970 3391,985 3391,1008 3393,1037 3382,1073 3368,1093 3348,1120 3314,1138 3286,1138 3249,1138 3230,1108 3230,1073 3230,1069 3230,1061 3233,1052 L 3264,926 C 3275,885 3312,806 3370,806 3398,806 3417,822 3417,851 Z"/>
       </g>
      </g>
      <g class="com.sun.star.drawing.ClosedBezierShape">
       <g id="id24">
        <path fill="rgb(0,0,0)" stroke="none" d="M 3643,946 L 3685,946 C 3695,946 3701,946 3701,935 3701,931 3695,931 3687,931 L 3646,931 3657,873 C 3659,864 3666,829 3669,823 3673,813 3681,806 3692,806 3694,806 3706,806 3716,815 3694,817 3689,834 3689,841 3689,852 3698,858 3708,858 3720,858 3734,848 3734,829 3734,806 3712,795 3692,795 3676,795 3643,803 3629,852 3627,864 3625,868 3613,931 L 3579,931 C 3569,931 3564,931 3564,939 3564,946 3568,946 3578,946 L 3610,946 3573,1140 C 3564,1188 3555,1233 3530,1233 3529,1233 3516,1233 3506,1224 3529,1223 3534,1205 3534,1198 3534,1187 3524,1180 3515,1180 3502,1180 3488,1191 3488,1210 3488,1231 3510,1244 3530,1244 3557,1244 3578,1215 3586,1196 3601,1164 3613,1106 3614,1101 L 3643,946 Z"/>
       </g>
      </g>
      <g class="com.sun.star.drawing.ClosedBezierShape">
       <g id="id25">
        <path fill="rgb(0,0,0)" stroke="none" d="M 3818,998 C 3818,988 3818,988 3808,988 3786,1010 3754,1010 3740,1010 L 3740,1023 C 3748,1023 3771,1023 3790,1013 L 3790,1189 C 3790,1201 3790,1205 3755,1205 L 3743,1205 3743,1217 C 3748,1217 3792,1216 3804,1216 3815,1216 3859,1217 3867,1217 L 3867,1205 3853,1205 C 3818,1205 3818,1201 3818,1189 L 3818,998 Z"/>
       </g>
      </g>
      <g class="com.sun.star.drawing.ClosedBezierShape">
       <g id="id26">
        <path fill="rgb(0,0,0)" stroke="none" d="M 4399,981 C 4406,981 4416,981 4416,971 4416,961 4406,961 4399,961 L 4104,961 C 4097,961 4087,961 4087,971 4087,981 4097,981 4104,981 L 4399,981 Z M 4399,1078 C 4406,1078 4416,1078 4416,1068 4416,1058 4406,1058 4399,1058 L 4104,1058 C 4097,1058 4087,1058 4087,1068 4087,1078 4097,1078 4104,1078 L 4399,1078 Z"/>
       </g>
      </g>
      <g class="com.sun.star.drawing.ClosedBezierShape">
       <g id="id27">
        <path fill="rgb(0,0,0)" stroke="none" d="M 4599,1203 C 4595,1220 4595,1224 4573,1224 4567,1224 4562,1224 4562,1233 4562,1237 4564,1240 4569,1240 4581,1240 4595,1237 4609,1237 4626,1237 4643,1240 4658,1240 4661,1240 4668,1240 4668,1229 4668,1224 4662,1224 4655,1224 4630,1224 4630,1220 4630,1216 4630,1210 4651,1129 4655,1117 4661,1132 4675,1149 4700,1149 4757,1149 4819,1076 4819,1003 4819,957 4791,925 4753,925 4730,925 4706,943 4689,961 4685,935 4662,925 4644,925 4622,925 4612,945 4608,953 4599,970 4592,999 4592,1001 4592,1006 4598,1006 4598,1006 4604,1006 4604,1006 4606,995 4616,960 4626,936 4643,936 4651,936 4658,940 4658,959 4658,970 4657,975 4655,984 L 4599,1203 Z M 4686,989 C 4690,975 4703,961 4713,954 4730,939 4743,936 4752,936 4773,936 4784,953 4784,982 4784,1012 4767,1068 4759,1087 4742,1122 4718,1138 4700,1138 4668,1138 4661,1097 4661,1094 4661,1093 4661,1092 4662,1086 L 4686,989 Z"/>
       </g>
      </g>
      <g class="com.sun.star.drawing.ClosedBezierShape">
       <g id="id28">
        <path fill="rgb(0,0,0)" stroke="none" d="M 5005,946 L 5047,946 C 5057,946 5063,946 5063,935 5063,931 5057,931 5049,931 L 5008,931 5019,873 C 5021,864 5028,829 5030,823 5035,813 5043,806 5054,806 5056,806 5068,806 5078,815 5056,817 5051,834 5051,841 5051,852 5060,858 5070,858 5082,858 5096,848 5096,829 5096,806 5074,795 5054,795 5037,795 5005,803 4991,852 4988,864 4987,868 4974,931 L 4941,931 C 4931,931 4925,931 4925,939 4925,946 4930,946 4939,946 L 4972,946 4935,1140 C 4925,1188 4917,1233 4892,1233 4890,1233 4878,1233 4868,1224 4890,1223 4896,1205 4896,1198 4896,1187 4886,1180 4876,1180 4864,1180 4850,1191 4850,1210 4850,1231 4872,1244 4892,1244 4918,1244 4939,1215 4948,1196 4963,1164 4974,1106 4976,1101 L 5005,946 Z"/>
       </g>
      </g>
      <g class="com.sun.star.drawing.ClosedBezierShape">
       <g id="id29">
        <path fill="rgb(0,0,0)" stroke="none" d="M 5239,1154 L 5226,1154 C 5226,1163 5222,1182 5218,1187 5215,1188 5189,1188 5183,1188 L 5120,1188 C 5156,1156 5168,1146 5189,1131 5215,1110 5239,1089 5239,1055 5239,1013 5201,988 5158,988 5114,988 5085,1019 5085,1050 5085,1068 5100,1069 5103,1069 5112,1069 5121,1064 5121,1051 5121,1045 5120,1033 5102,1033 5112,1008 5135,1001 5152,1001 5187,1001 5205,1027 5205,1055 5205,1086 5183,1110 5172,1122 L 5088,1205 C 5085,1208 5085,1208 5085,1217 L 5228,1217 5239,1154 Z"/>
       </g>
      </g>
     </g>
     <g class="Group">
      <g class="com.sun.star.drawing.PolyPolygonShape">
       <g id="id30">
        <path fill="rgb(255,255,255)" stroke="none" d="M 5533,3788 L 4175,3788 4175,3352 6891,3352 6891,3788 5533,3788 Z"/>
       </g>
      </g>
      <g class="com.sun.star.drawing.ClosedBezierShape">
       <g id="id31">
        <path fill="rgb(0,0,0)" stroke="none" d="M 4357,3496 L 4399,3496 C 4409,3496 4414,3496 4414,3485 4414,3481 4409,3481 4400,3481 L 4360,3481 4371,3423 C 4372,3414 4379,3379 4382,3373 4386,3363 4395,3356 4406,3356 4407,3356 4420,3356 4430,3365 4407,3367 4403,3384 4403,3391 4403,3402 4412,3408 4421,3408 4434,3408 4448,3398 4448,3379 4448,3356 4426,3345 4406,3345 4389,3345 4357,3353 4343,3402 4340,3414 4339,3418 4326,3481 L 4293,3481 C 4283,3481 4277,3481 4277,3489 4277,3496 4281,3496 4291,3496 L 4323,3496 4287,3690 C 4277,3738 4269,3783 4244,3783 4242,3783 4230,3783 4220,3774 4242,3773 4248,3755 4248,3748 4248,3737 4238,3730 4228,3730 4216,3730 4202,3741 4202,3760 4202,3781 4224,3794 4244,3794 4270,3794 4291,3765 4300,3746 4315,3714 4326,3656 4328,3651 L 4357,3496 Z"/>
       </g>
      </g>
      <g class="com.sun.star.drawing.ClosedBezierShape">
       <g id="id32">
        <path fill="rgb(0,0,0)" stroke="none" d="M 4591,3704 L 4578,3704 C 4578,3713 4574,3732 4570,3737 4567,3738 4540,3738 4535,3738 L 4472,3738 C 4508,3706 4519,3696 4540,3681 4567,3660 4591,3639 4591,3605 4591,3563 4553,3538 4510,3538 4466,3538 4437,3569 4437,3600 4437,3618 4452,3619 4455,3619 4463,3619 4473,3614 4473,3601 4473,3595 4472,3583 4454,3583 4463,3558 4487,3551 4504,3551 4539,3551 4557,3577 4557,3605 4557,3636 4535,3660 4524,3672 L 4440,3755 C 4437,3758 4437,3758 4437,3767 L 4580,3767 4591,3704 Z"/>
       </g>
      </g>
      <g class="com.sun.star.drawing.ClosedBezierShape">
       <g id="id33">
        <path fill="rgb(0,0,0)" stroke="none" d="M 5112,3531 C 5119,3531 5128,3531 5128,3521 5128,3511 5119,3511 5112,3511 L 4816,3511 C 4809,3511 4799,3511 4799,3521 4799,3531 4809,3531 4816,3531 L 5112,3531 Z M 5112,3628 C 5119,3628 5128,3628 5128,3618 5128,3608 5119,3608 5112,3608 L 4816,3608 C 4809,3608 4799,3608 4799,3618 4799,3628 4809,3628 4816,3628 L 5112,3628 Z"/>
       </g>
      </g>
      <g class="com.sun.star.drawing.ClosedBezierShape">
       <g id="id34">
        <path fill="rgb(0,0,0)" stroke="none" d="M 5575,3412 C 5575,3376 5547,3345 5508,3345 5478,3345 5464,3353 5448,3366 5420,3386 5393,3433 5383,3471 L 5305,3784 C 5305,3786 5306,3788 5310,3788 5315,3788 5316,3788 5317,3787 L 5351,3650 C 5361,3679 5383,3697 5418,3697 5455,3697 5492,3681 5515,3660 5537,3636 5554,3605 5554,3569 5554,3532 5536,3507 5518,3495 5546,3479 5575,3449 5575,3412 Z M 5485,3495 C 5478,3497 5474,3497 5462,3497 5455,3497 5445,3499 5439,3496 5441,3490 5459,3492 5464,3492 5474,3492 5478,3492 5485,3495 Z M 5547,3401 C 5547,3436 5527,3471 5502,3486 5488,3482 5478,3481 5464,3481 5453,3481 5427,3481 5427,3496 5425,3510 5452,3509 5460,3509 5478,3509 5485,3509 5501,3502 5519,3520 5522,3535 5522,3558 5523,3587 5512,3623 5498,3643 5478,3670 5445,3688 5417,3688 5379,3688 5361,3658 5361,3623 5361,3619 5361,3611 5364,3602 L 5394,3476 C 5406,3435 5442,3356 5501,3356 5529,3356 5547,3372 5547,3401 Z"/>
       </g>
      </g>
      <g class="com.sun.star.drawing.ClosedBezierShape">
       <g id="id35">
        <path fill="rgb(0,0,0)" stroke="none" d="M 5775,3496 L 5817,3496 C 5827,3496 5833,3496 5833,3485 5833,3481 5827,3481 5819,3481 L 5778,3481 5789,3423 C 5791,3414 5798,3379 5800,3373 5805,3363 5813,3356 5824,3356 5826,3356 5838,3356 5848,3365 5826,3367 5821,3384 5821,3391 5821,3402 5830,3408 5840,3408 5852,3408 5866,3398 5866,3379 5866,3356 5844,3345 5824,3345 5807,3345 5775,3353 5761,3402 5758,3414 5757,3418 5744,3481 L 5711,3481 C 5701,3481 5695,3481 5695,3489 5695,3496 5700,3496 5709,3496 L 5742,3496 5705,3690 C 5695,3738 5687,3783 5662,3783 5660,3783 5648,3783 5638,3774 5660,3773 5666,3755 5666,3748 5666,3737 5656,3730 5646,3730 5634,3730 5620,3741 5620,3760 5620,3781 5642,3794 5662,3794 5688,3794 5709,3765 5718,3746 5733,3714 5744,3656 5746,3651 L 5775,3496 Z"/>
       </g>
      </g>
      <g class="com.sun.star.drawing.ClosedBezierShape">
       <g id="id36">
        <path fill="rgb(0,0,0)" stroke="none" d="M 5950,3548 C 5950,3538 5950,3538 5940,3538 5918,3560 5886,3560 5872,3560 L 5872,3573 C 5880,3573 5903,3573 5922,3563 L 5922,3739 C 5922,3751 5922,3755 5887,3755 L 5875,3755 5875,3767 C 5880,3767 5924,3766 5936,3766 5947,3766 5991,3767 5999,3767 L 5999,3755 5985,3755 C 5950,3755 5950,3751 5950,3739 L 5950,3548 Z"/>
       </g>
      </g>
      <g class="com.sun.star.drawing.ClosedBezierShape">
       <g id="id37">
        <path fill="rgb(0,0,0)" stroke="none" d="M 6366,3580 L 6503,3580 C 6510,3580 6520,3580 6520,3570 6520,3559 6510,3559 6503,3559 L 6366,3559 6366,3422 C 6366,3415 6366,3405 6356,3405 6345,3405 6345,3415 6345,3422 L 6345,3559 6208,3559 C 6201,3559 6191,3559 6191,3570 6191,3580 6201,3580 6208,3580 L 6345,3580 6345,3717 C 6345,3724 6345,3734 6356,3734 6366,3734 6366,3724 6366,3717 L 6366,3580 Z"/>
       </g>
      </g>
      <g class="com.sun.star.drawing.ClosedBezierShape">
       <g id="id38">
        <path fill="rgb(0,0,0)" stroke="none" d="M 6698,3664 C 6696,3672 6694,3683 6694,3686 6694,3695 6701,3699 6708,3699 6713,3699 6723,3695 6726,3685 6727,3683 6744,3616 6745,3607 6750,3591 6758,3556 6762,3542 6764,3537 6778,3513 6789,3502 6793,3499 6807,3486 6829,3486 6842,3486 6849,3492 6850,3492 6835,3495 6824,3506 6824,3518 6824,3527 6829,3537 6843,3537 6856,3537 6870,3525 6870,3507 6870,3490 6855,3475 6829,3475 6797,3475 6775,3499 6765,3513 6762,3490 6744,3475 6720,3475 6698,3475 6688,3495 6684,3503 6675,3520 6668,3549 6668,3551 6668,3556 6674,3556 6674,3556 6680,3556 6680,3556 6682,3545 6691,3510 6701,3486 6719,3486 6727,3486 6734,3490 6734,3509 6734,3518 6733,3524 6726,3551 L 6698,3664 Z"/>
       </g>
      </g>
     </g>
     <g class="Group">
      <g class="com.sun.star.drawing.PolyPolygonShape">
       <g id="id39">
        <path fill="rgb(255,255,255)" stroke="none" d="M 6360,6680 L 6207,6680 6207,5596 6512,5596 6512,6680 6360,6680 Z"/>
       </g>
      </g>
      <g class="com.sun.star.drawing.ClosedBezierShape">
       <g id="id40">
        <path fill="rgb(0,0,0)" stroke="none" d="M 6382,5598 C 6382,5586 6382,5585 6371,5585 6340,5617 6295,5617 6280,5617 L 6280,5633 C 6290,5633 6319,5633 6344,5619 L 6344,5875 C 6344,5893 6343,5899 6298,5899 L 6283,5899 6283,5914 C 6301,5913 6343,5913 6364,5913 6383,5913 6427,5913 6443,5914 L 6443,5899 6428,5899 C 6383,5899 6382,5893 6382,5875 L 6382,5598 Z"/>
       </g>
      </g>
      <g class="com.sun.star.drawing.PolyPolygonShape">
       <g id="id41">
        <path fill="rgb(0,0,0)" stroke="none" d="M 6360,6134 L 6207,6134 6207,6113 6512,6113 6512,6134 6360,6134 Z"/>
       </g>
      </g>
      <g class="com.sun.star.drawing.ClosedBezierShape">
       <g id="id42">
        <path fill="rgb(0,0,0)" stroke="none" d="M 6492,6302 C 6492,6266 6464,6235 6425,6235 6396,6235 6382,6243 6365,6256 6337,6275 6311,6323 6301,6361 L 6222,6674 C 6222,6676 6224,6679 6228,6679 6232,6679 6234,6679 6235,6677 L 6269,6540 C 6278,6569 6301,6588 6336,6588 6372,6588 6410,6571 6431,6550 6455,6526 6471,6495 6471,6459 6471,6422 6453,6397 6435,6385 6463,6369 6492,6338 6492,6302 Z M 6403,6385 C 6396,6387 6392,6387 6379,6387 6372,6387 6362,6389 6357,6386 6358,6380 6376,6382 6382,6382 6392,6382 6396,6382 6403,6385 Z M 6464,6291 C 6464,6326 6445,6361 6420,6376 6406,6372 6396,6371 6382,6371 6371,6371 6344,6371 6344,6386 6343,6400 6369,6399 6378,6399 6396,6399 6403,6399 6418,6392 6436,6410 6439,6425 6439,6448 6441,6477 6429,6513 6415,6533 6396,6560 6362,6578 6334,6578 6297,6578 6278,6548 6278,6513 6278,6509 6278,6501 6281,6492 L 6312,6366 C 6323,6324 6359,6246 6418,6246 6446,6246 6464,6261 6464,6291 Z"/>
       </g>
      </g>
     </g>
     <g class="Group">
      <g class="com.sun.star.drawing.PolyPolygonShape">
       <g id="id43">
        <path fill="rgb(255,255,255)" stroke="none" d="M 3921,7706 L 3792,7706 3792,7364 4048,7364 4048,7706 3921,7706 Z"/>
       </g>
      </g>
      <g class="com.sun.star.drawing.ClosedBezierShape">
       <g id="id44">
        <path fill="rgb(0,0,0)" stroke="none" d="M 4047,7369 C 4047,7369 4047,7363 4041,7363 4033,7363 3986,7367 3978,7369 3974,7369 3971,7371 3971,7378 3971,7384 3975,7384 3982,7384 4006,7384 4007,7387 4007,7392 L 4006,7402 3977,7520 C 3967,7500 3953,7488 3930,7488 3873,7488 3812,7561 3812,7632 3812,7678 3838,7712 3877,7712 3887,7712 3912,7709 3942,7674 3946,7695 3963,7712 3986,7712 4005,7712 4016,7701 4023,7684 4031,7667 4038,7636 4038,7635 4038,7631 4034,7631 4033,7631 4027,7631 4027,7632 4026,7639 4017,7671 4007,7701 3988,7701 3974,7701 3972,7688 3972,7678 3972,7666 3974,7663 3975,7655 L 4047,7369 Z M 3944,7648 C 3942,7656 3942,7657 3935,7666 3912,7692 3893,7701 3879,7701 3854,7701 3847,7674 3847,7655 3847,7629 3862,7569 3875,7547 3890,7517 3911,7499 3932,7499 3964,7499 3970,7540 3970,7542 3970,7545 3970,7548 3968,7551 L 3944,7648 Z"/>
       </g>
      </g>
     </g>
     <g class="Group">
      <g class="com.sun.star.drawing.PolyPolygonShape">
       <g id="id45">
        <path fill="rgb(255,255,255)" stroke="none" d="M 6325,7684 L 6207,7684 6207,7471 6444,7471 6444,7684 6325,7684 Z"/>
       </g>
      </g>
      <g class="com.sun.star.drawing.ClosedBezierShape">
       <g id="id46">
        <path fill="rgb(0,0,0)" stroke="none" d="M 6250,7653 C 6249,7661 6246,7673 6246,7675 6246,7684 6253,7688 6260,7688 6266,7688 6276,7684 6279,7674 6280,7673 6297,7605 6298,7596 6302,7580 6311,7545 6315,7531 6316,7526 6330,7502 6342,7491 6346,7488 6360,7475 6382,7475 6395,7475 6402,7481 6403,7481 6388,7484 6377,7495 6377,7507 6377,7516 6382,7526 6396,7526 6409,7526 6423,7514 6423,7496 6423,7479 6408,7464 6382,7464 6350,7464 6328,7488 6318,7502 6315,7479 6297,7464 6273,7464 6250,7464 6241,7484 6236,7492 6228,7509 6221,7538 6221,7540 6221,7545 6227,7545 6227,7545 6232,7545 6232,7545 6235,7534 6243,7499 6253,7475 6272,7475 6280,7475 6287,7479 6287,7498 6287,7507 6286,7513 6279,7540 L 6250,7653 Z"/>
       </g>
      </g>
     </g>
    </g>
   </g>
  </g>
 </g>
</svg>